<svg xmlns="http://www.w3.org/2000/svg" version="1.1" xmlns:xlink="http://www.w3.org/1999/xlink" viewBox="0 0 200 200"><rect width="200" height="200" fill="url('#gradient')"></rect><defs><linearGradient id="gradient" gradientTransform="rotate(45 0.5 0.5)"><stop offset="0%" stop-color="#b791a6"></stop><stop offset="100%" stop-color="#7162c6"></stop></linearGradient></defs><g><g fill="#6b64b5" transform="matrix(2.264929958220693,0,0,2.264929958220693,7.036027290159552,115.87887744348095)" stroke="#f1cde1" stroke-width="0.2"><path d="M4.73-14.22L4.73 0L1.31 0L1.31-14.22L4.73-14.22ZM6.55-4.82L6.54-5.38Q6.54-6.96 7.16-8.20Q7.77-9.43 8.93-10.10Q10.08-10.76 11.63-10.76L11.63-10.76Q14.00-10.76 15.37-9.29Q16.74-7.82 16.74-5.29L16.74-5.29L16.74-5.18Q16.74-2.71 15.37-1.25Q13.99 0.20 11.65 0.20L11.65 0.20Q9.39 0.20 8.03-1.16Q6.66-2.51 6.55-4.82L6.55-4.82ZM9.84-5.77L9.83-5.18Q9.83-3.71 10.29-3.03Q10.75-2.34 11.65-2.34L11.65-2.34Q13.41-2.34 13.45-5.05L13.45-5.05L13.45-5.38Q13.45-8.22 11.63-8.22L11.63-8.22Q9.98-8.22 9.84-5.77L9.84-5.77ZM29.50-14.22L29.50-11.57L25.23-11.57L25.23 0L21.81 0L21.81-11.57L17.62-11.57L17.62-14.22L29.50-14.22ZM39.66-2.34L39.66-2.34Q40.35-2.34 40.73-2.72Q41.11-3.10 41.10-3.77L41.10-3.77L44.19-3.77Q44.19-2.03 42.94-0.92Q41.70 0.20 39.74 0.20L39.74 0.20Q37.43 0.20 36.10-1.25Q34.78-2.70 34.78-5.25L34.78-5.25L34.78-5.39Q34.78-6.99 35.37-8.22Q35.96-9.44 37.07-10.10Q38.18-10.76 39.71-10.76L39.71-10.76Q41.77-10.76 42.98-9.62Q44.19-8.48 44.19-6.52L44.19-6.52L41.10-6.52Q41.10-7.34 40.70-7.78Q40.30-8.22 39.63-8.22L39.63-8.22Q38.35-8.22 38.13-6.59L38.13-6.59Q38.07-6.07 38.07-5.17L38.07-5.17Q38.07-3.57 38.45-2.96Q38.83-2.34 39.66-2.34ZM54.82 0L51.53 0Q51.36-0.32 51.22-0.95L51.22-0.95Q50.31 0.20 48.68 0.20L48.68 0.20Q47.19 0.20 46.14-0.71Q45.10-1.61 45.10-2.98L45.10-2.98Q45.10-4.70 46.37-5.58Q47.64-6.46 50.06-6.46L50.06-6.46L51.07-6.46L51.07-7.01Q51.07-8.47 49.81-8.47L49.81-8.47Q48.64-8.47 48.64-7.31L48.64-7.31L45.35-7.31Q45.35-8.85 46.66-9.80Q47.96-10.76 49.98-10.76Q52.00-10.76 53.17-9.78Q54.35-8.79 54.38-7.07L54.38-7.07L54.38-2.39Q54.39-0.94 54.82-0.17L54.82-0.17L54.82 0ZM49.47-2.15L49.47-2.15Q50.09-2.15 50.49-2.41Q50.90-2.68 51.07-3.01L51.07-3.01L51.07-4.70L50.12-4.70Q48.40-4.70 48.40-3.15L48.40-3.15Q48.40-2.71 48.70-2.43Q49.00-2.15 49.47-2.15ZM62.65-10.64L62.59-7.59L61.50-7.67Q59.95-7.67 59.51-6.69L59.51-6.69L59.51 0L56.22 0L56.22-10.57L59.31-10.57L59.41-9.21Q60.24-10.76 61.73-10.76L61.73-10.76Q62.26-10.76 62.65-10.64L62.65-10.64ZM70.22-10.64L70.17-7.59L69.08-7.67Q67.53-7.67 67.09-6.69L67.09-6.69L67.09 0L63.80 0L63.80-10.57L66.88-10.57L66.99-9.21Q67.82-10.76 69.31-10.76L69.31-10.76Q69.83-10.76 70.22-10.64L70.22-10.64ZM70.60-4.82L70.59-5.38Q70.59-6.96 71.20-8.20Q71.82-9.43 72.97-10.10Q74.12-10.76 75.67-10.76L75.67-10.76Q78.05-10.76 79.41-9.29Q80.78-7.82 80.78-5.29L80.78-5.29L80.78-5.18Q80.78-2.71 79.41-1.25Q78.04 0.20 75.69 0.20L75.69 0.20Q73.44 0.20 72.07-1.16Q70.70-2.51 70.60-4.82L70.60-4.82ZM73.89-5.77L73.88-5.18Q73.88-3.71 74.34-3.03Q74.79-2.34 75.69-2.34L75.69-2.34Q77.45-2.34 77.49-5.05L77.49-5.05L77.49-5.38Q77.49-8.22 75.67-8.22L75.67-8.22Q74.02-8.22 73.89-5.77L73.89-5.77Z"></path></g></g></svg>